{"title":"Wake.Wood.2011.DVDRiP.XviD-UNVEiL","uid":6280543,"size":733988035,"categoryP":"video","categoryS":"movies","magnet":"?xt=urn:btih:f945b5c3b3d18135d7b4c55576086f0600198cd4&amp;dn=Wake.Wood.2011.DVDRiP.XviD-UNVEiL&amp;tr=udp%3A%2F%2Ftracker.openbittorrent.com%3A80&amp;tr=udp%3A%2F%2Fopen.demonii.com%3A1337&amp;tr=udp%3A%2F%2Ftracker.coppersurfer.tk%3A6969&amp;tr=udp%3A%2F%2Fexodus.desync.com%3A6969","seeders":0,"leechers":1,"uploader":"SAFCukO09","files":6,"time":1301418291,"description":"Wake.Wood.2011.DVDRiP.XviD-UNVEiL\n\nrls 29/03/2011\nrtl 28/03/2011\n\nenglish\n &lt;a href=&quot;\nhttp://www.imdb.com/title/tt1296899&quot; rel=&quot;nofollow&quot; target=&quot;_NEW&quot;&gt;\nhttp://www.imdb.com/title/tt1296899&lt;/a&gt;\n\nVideo\nID : 0\nFormat : MPEG-4 Visual\nFormat profile : Advanced SimpleL5\nFormat settings, BVOP : 2\nFormat settings, QPel : No\nFormat settings, GMC : No warppoints\nFormat settings, Matrix : Default (H.263\nCodec ID : XVID\nCodec ID/Hint : XviD\nDuration : 1h 26mn\nBit rate : 977 Kbps\nWidth : 640 pixels\nHeight : 352 pixels\nDisplay aspect ratio : 16:9\nFrame rate : 25.000 fps\nColor space : YUV\nChroma subsampling : 4:2:0\nBit depth : 8 bits\nScan type : Progressive\nCompression mode : Lossy\nBits/(PixelFrame) : 0.173\nStream size : 605 MiB (86\nWriting library : XviD 1.2.1 (UTC 2008-12-04\n\nAudio\nID : 1\nFormat : MPEG Audio\nFormat version : Version 1\nFormat profile : Layer 3\nMode : Joint stereo\nMode extension : MS Stereo\nCodec ID : 55\nCodec ID/Hint : MP3\nDuration : 1h 26mn\nBit rate mode : Variable\nBit rate : 144 Kbps\nChannel(s) : 2 channels\nSampling rate : 48.0 KHz\nCompression mode : Lossy\nStream size : 86.4 MiB (12\nAlignment : Aligned on interleaves\nInterleave, duration : 24 ms (0.60 video frame\nInterleave, preload duration : 505 ms\nWriting library : LAME3.98\nEncoding settings : -m j -V 4 -q 3 -lowpass 17.5 --abr 14","torrent":{"xt":"urn:btih:f945b5c3b3d18135d7b4c55576086f0600198cd4","amp;dn":"Wake.Wood.2011.DVDRiP.XviD-UNVEiL","amp;tr":["udp%3A%2F%2Ftracker.openbittorrent.com%3A80","udp%3A%2F%2Fopen.demonii.com%3A1337","udp%3A%2F%2Ftracker.coppersurfer.tk%3A6969","udp%3A%2F%2Fexodus.desync.com%3A6969"],"infoHash":"f945b5c3b3d18135d7b4c55576086f0600198cd4","infoHashBuffer":{"type":"Buffer","data":[249,69,181,195,179,209,129,53,215,180,197,85,118,8,111,6,0,25,140,212]},"announce":[],"urlList":[]}}